<svg width="20" height="20" viewBox="0 0 20 20" fill="none" xmlns="http://www.w3.org/2000/svg">
<path fill-rule="evenodd" clip-rule="evenodd" d="M14.9987 2.5C15.4589 2.5 15.832 2.8731 15.832 3.33333C15.832 3.79357 15.4589 4.16667 14.9987 4.16667L14.1654 4.16667V15H14.9987C15.4589 15 15.832 15.3731 15.832 15.8333C15.832 16.2936 15.4589 16.6667 14.9987 16.6667H11.6654C11.2051 16.6667 10.832 16.2936 10.832 15.8333C10.832 15.3731 11.2051 15 11.6654 15H12.4987V4.16667H11.6654C11.2051 4.16667 10.832 3.79357 10.832 3.33333C10.832 2.8731 11.2051 2.5 11.6654 2.5H14.9987Z" fill="#537CFA"/>
<path fill-rule="evenodd" clip-rule="evenodd" d="M3.33268 6.66667V12.5H16.666V6.66667H3.33268ZM3.0549 5C2.28784 5 1.66602 5.62183 1.66602 6.38889V12.7778C1.66602 13.5448 2.28784 14.1667 3.0549 14.1667H16.9438C17.7109 14.1667 18.3327 13.5448 18.3327 12.7778V6.38889C18.3327 5.62183 17.7109 5 16.9438 5H3.0549Z" fill="#537CFA"/>
</svg>
