<?xml version="1.0" encoding="UTF-8"?>
<svg width="6px" height="18px" viewBox="0 0 6 18" version="1.1" xmlns="http://www.w3.org/2000/svg" xmlns:xlink="http://www.w3.org/1999/xlink">
    <!-- Generator: Sketch 49 (51002) - http://www.bohemiancoding.com/sketch -->
    <title>drag-vertical</title>
    <desc>Created with Sketch.</desc>
    <defs></defs>
    <g id="Material-Design-for-dhtmlxScheduler" stroke="none" stroke-width="1" fill="none" fill-rule="evenodd">
        <g id="Artboard-Copy-6" transform="translate(-204.000000, -638.000000)" fill="#FFFFFF" fill-rule="nonzero">
            <g id="drag-vertical" transform="translate(204.000000, 638.000000)">
                <path d="M0,0 L2,0 L2,2 L0,2 L0,0 Z M4,1e-05 L6,1e-05 L6,2.00001 L4,2.00001 L4,1e-05 Z M0,4.00001 L2,4.00001 L2,6.00001 L0,6.00001 L0,4.00001 Z M4,4.00001 L6,4.00001 L6,6.00001 L4,6.00001 L4,4.00001 Z M0,8 L2,8 L2,10 L0,10 L0,8 Z M4,8 L6,8 L6,10 L4,10 L4,8 Z M0,12 L2,12 L2,14 L0,14 L0,12 Z M4,12 L6,12 L6,14 L4,14 L4,12 Z M0,16 L2,16 L2,18 L0,18 L0,16 Z M4,16 L6,16 L6,18 L4,18 L4,16 Z"></path>
            </g>
        </g>
    </g>
</svg>