<svg xmlns="http://www.w3.org/2000/svg" width="20" height="20" viewBox="0 0 20 20">
  <path d="M19.00003,23.99987 C23.42003,23.99987 27.00003,20.41797 27.00003,15.99987 C27.00003,11.58187 23.42003,7.99992 19.00003,7.99992 C14.58002,7.99992 11.00002,11.58187 11.00002,15.99987 C11.00002,20.41797 14.58002,23.99987 19.00003,23.99987 Z M18.99503,6 C24.52103,6 29.00003,10.47697 29.00003,15.99997 C29.00003,21.52307 24.52103,25.99997 18.99503,25.99997 C13.46798,25.99997 9,21.52307 9,15.99997 C9,10.47697 13.46798,6 18.99503,6 Z M19.50003,11 L19.50003,16.24997 L24.00003,18.91907 L23.24703,20.15007 L18.00003,16.99997 L18.00003,11 L19.50003,11 Z" opacity=".38" transform="translate(-9 -6)"/>
</svg>
