<?xml version="1.0" encoding="UTF-8"?>
<svg width="20px" height="20px" viewBox="0 0 20 20" version="1.1" xmlns="http://www.w3.org/2000/svg" xmlns:xlink="http://www.w3.org/1999/xlink">
    <!-- Generator: Sketch 48.2 (47327) - http://www.bohemiancoding.com/sketch -->
    <title>Time</title>
    <desc>Created with Sketch.</desc>
    <defs></defs>
    <g id="Scheduler-Material-Modal-Big-Timepicker" stroke="none" stroke-width="1" fill="none" fill-rule="evenodd" transform="translate(-687.000000, -488.000000)" opacity="0.38">
        <g id="Modal" fill="#000000" fill-rule="nonzero">
            <g transform="translate(571.000000, 306.000000)" id="Group-17">
                <g transform="translate(30.000000, 176.000000)">
                    <g id="Group-15">
                        <g id="Group-10" transform="translate(77.000000, 0.000000)">
                            <g id="Group-21">
                                <g id="Group-3">
                                    <path d="M19.00003,23.99987 C23.42003,23.99987 27.00003,20.41797 27.00003,15.99987 C27.00003,11.58187 23.42003,7.99992 19.00003,7.99992 C14.58002,7.99992 11.00002,11.58187 11.00002,15.99987 C11.00002,20.41797 14.58002,23.99987 19.00003,23.99987 Z M18.99503,6 C24.52103,6 29.00003,10.47697 29.00003,15.99997 C29.00003,21.52307 24.52103,25.99997 18.99503,25.99997 C13.46798,25.99997 9,21.52307 9,15.99997 C9,10.47697 13.46798,6 18.99503,6 Z M19.50003,11 L19.50003,16.24997 L24.00003,18.91907 L23.24703,20.15007 L18.00003,16.99997 L18.00003,11 L19.50003,11 Z" id="Time"></path>
                                </g>
                            </g>
                        </g>
                    </g>
                </g>
            </g>
        </g>
    </g>
</svg>